<?xml version="1.0" encoding="UTF-8" standalone="no"?>
<!-- Generator: Adobe Illustrator 19.0.0, SVG Export Plug-In . SVG Version: 6.00 Build 0)  -->

<svg
   xmlns:dc="http://purl.org/dc/elements/1.1/"
   xmlns:cc="http://creativecommons.org/ns#"
   xmlns:rdf="http://www.w3.org/1999/02/22-rdf-syntax-ns#"
   xmlns:svg="http://www.w3.org/2000/svg"
   xmlns="http://www.w3.org/2000/svg"
   xmlns:sodipodi="http://sodipodi.sourceforge.net/DTD/sodipodi-0.dtd"
   xmlns:inkscape="http://www.inkscape.org/namespaces/inkscape"
   version="1.1"
   id="Layer_1"
   x="0px"
   y="0px"
   viewBox="0 0 299.998 299.998"
   style="enable-background:new 0 0 299.998 299.998;"
   xml:space="preserve"
   sodipodi:docname="logo.svg"
   inkscape:version="0.92.3 (2405546, 2018-03-11)"
   inkscape:export-filename="/media/joshua/C14D581BDA18EBFA/SIMPLON/PROJETS/MOBILE/INSPI/mobilebanking/assets/images/logo.svg.png"
   inkscape:export-xdpi="80"
   inkscape:export-ydpi="80"><metadata
   id="metadata43"><rdf:RDF><cc:Work
       rdf:about=""><dc:format>image/svg+xml</dc:format><dc:type
         rdf:resource="http://purl.org/dc/dcmitype/StillImage" /></cc:Work></rdf:RDF></metadata><defs
   id="defs41" /><sodipodi:namedview
   pagecolor="#ffffff"
   bordercolor="#666666"
   borderopacity="1"
   objecttolerance="10"
   gridtolerance="10"
   guidetolerance="10"
   inkscape:pageopacity="0"
   inkscape:pageshadow="2"
   inkscape:window-width="1329"
   inkscape:window-height="704"
   id="namedview39"
   showgrid="false"
   inkscape:zoom="0.78667195"
   inkscape:cx="-296.18445"
   inkscape:cy="149.99899"
   inkscape:window-x="37"
   inkscape:window-y="27"
   inkscape:window-maximized="1"
   inkscape:current-layer="Layer_1" />
<ellipse
   style="fill:#ffffff;fill-opacity:1;stroke:none;stroke-width:2.7967267;stroke-miterlimit:4;stroke-dasharray:none;stroke-opacity:1"
   id="path852"
   cx="148.72783"
   cy="151.27017"
   rx="126.19517"
   ry="127.69213"
   inkscape:export-xdpi="64.000427"
   inkscape:export-ydpi="64.000427" /><g
   id="g6"
   inkscape:export-xdpi="64.000427"
   inkscape:export-ydpi="64.000427">
	<g
   id="g4">
		<path
   d="M149.995,0.001C67.156,0.001,0,67.16,0,149.999s67.156,149.997,149.995,149.997s150.003-67.161,150.003-149.997    C299.997,67.157,232.834,0.001,149.995,0.001z M229.25,226.844H70.75c-3.981,0-7.205-3.221-7.205-7.202V80.353    c0-3.979,3.224-7.202,7.205-7.202h158.497c3.981,0,7.205,3.224,7.205,7.202v97.537h-16.941V89.834H80.323v93.027h7.949    l32.119-50.087l21.465,33.468l10.66,16.62h9.241l-15.281-23.827l9.959-15.53l25.241,39.355h19.491v5.405v16.321v10.374h10.374    h24.909v4.684h0.005C236.454,223.624,233.231,226.844,229.25,226.844z M207.264,121.042c0,8.232-6.676,14.908-14.908,14.908    s-14.908-6.676-14.908-14.908s6.676-14.908,14.908-14.908S207.264,112.813,207.264,121.042z M236.455,204.587h-24.911v-16.321    h24.909h24.909v16.321H236.455z"
   id="path2" />
	</g>
</g>
<g
   id="g8"
   inkscape:export-xdpi="64.000427"
   inkscape:export-ydpi="64.000427">
</g>
<g
   id="g10"
   inkscape:export-xdpi="64.000427"
   inkscape:export-ydpi="64.000427">
</g>
<g
   id="g12"
   inkscape:export-xdpi="64.000427"
   inkscape:export-ydpi="64.000427">
</g>
<g
   id="g14"
   inkscape:export-xdpi="64.000427"
   inkscape:export-ydpi="64.000427">
</g>
<g
   id="g16"
   inkscape:export-xdpi="64.000427"
   inkscape:export-ydpi="64.000427">
</g>
<g
   id="g18"
   inkscape:export-xdpi="64.000427"
   inkscape:export-ydpi="64.000427">
</g>
<g
   id="g20"
   inkscape:export-xdpi="64.000427"
   inkscape:export-ydpi="64.000427">
</g>
<g
   id="g22"
   inkscape:export-xdpi="64.000427"
   inkscape:export-ydpi="64.000427">
</g>
<g
   id="g24"
   inkscape:export-xdpi="64.000427"
   inkscape:export-ydpi="64.000427">
</g>
<g
   id="g26"
   inkscape:export-xdpi="64.000427"
   inkscape:export-ydpi="64.000427">
</g>
<g
   id="g28"
   inkscape:export-xdpi="64.000427"
   inkscape:export-ydpi="64.000427">
</g>
<g
   id="g30"
   inkscape:export-xdpi="64.000427"
   inkscape:export-ydpi="64.000427">
</g>
<g
   id="g32"
   inkscape:export-xdpi="64.000427"
   inkscape:export-ydpi="64.000427">
</g>
<g
   id="g34"
   inkscape:export-xdpi="64.000427"
   inkscape:export-ydpi="64.000427">
</g>
<g
   id="g36"
   inkscape:export-xdpi="64.000427"
   inkscape:export-ydpi="64.000427">
</g>
</svg>